<svg width="67" height="55" viewBox="0 0 67 55" fill="none" xmlns="http://www.w3.org/2000/svg">
<rect x="56.7112" y="22.5088" width="6.24318" height="31.7502" rx="3.12159" transform="rotate(40.2369 56.7112 22.5088)" fill="black"/>
<path fill-rule="evenodd" clip-rule="evenodd" d="M18.8575 16.9827C17.5829 15.8218 15.6086 15.914 14.4477 17.1886L6.7919 25.5943C6.71627 25.6773 6.64596 25.7633 6.58094 25.8519C6.53515 25.9143 6.48477 25.9732 6.43022 26.0281V26.0281C5.21492 27.2509 5.221 29.2274 6.4438 30.4427L22.7746 46.6732C22.87 46.7922 22.9744 46.9063 23.0876 47.0146C23.1677 47.0912 23.2504 47.1631 23.3354 47.2306C24.559 48.4358 26.5279 48.4264 27.7399 47.207C27.8058 47.1406 27.8682 47.072 27.927 47.0014C27.983 46.9471 28.0376 46.8905 28.0908 46.8317L39.7339 33.9399C40.9068 32.6412 40.8091 30.6387 39.5153 29.4604C38.2468 28.305 36.2902 28.3652 35.0951 29.5964L26.7172 38.2272C25.7486 39.2251 24.1514 39.2394 23.165 38.259L14.6447 29.7911C13.6965 28.8487 13.6586 27.3266 14.5588 26.3383L19.0634 21.3925C20.2242 20.1179 20.1321 18.1436 18.8575 16.9827Z" fill="black"/>
<rect x="25.6218" y="24.2944" width="6.24318" height="6.53937" rx="3.12159" transform="rotate(42.3269 25.6218 24.2944)" fill="black"/>
<rect x="27.0892" y="8.07275" width="2.91808" height="7.44069" rx="1.45904" transform="rotate(46.9342 27.0892 8.07275)" fill="black"/>
<rect x="29.9814" y="17.9233" width="2.91808" height="7.50817" rx="1.45904" transform="rotate(84.6022 29.9814 17.9233)" fill="black"/>
<rect x="17.9879" y="4.16089" width="2.91808" height="8.28807" rx="1.45904" transform="rotate(18.1218 17.9879 4.16089)" fill="black"/>
</svg>
